<svg width="527" height="192" viewBox="0 0 527 192" fill="none" xmlns="http://www.w3.org/2000/svg">
<path fill-rule="evenodd" clip-rule="evenodd" d="M453.496 0L384.227 76.2784V173.47L422.435 191.664L527 117.548V27.0928L453.496 0ZM413.622 87.6334L461.93 34.4363L497.606 47.5859V102.353L419.505 157.712L413.622 154.91V87.6334Z" fill="#FE6316"/>
<path d="M25.1549 168.39C19.6103 168.39 14.952 167.385 11.1799 165.374C7.45329 163.363 4.65831 160.689 2.79498 157.352C0.931661 154.016 0 150.382 0 146.452C0 142.429 0.795321 139.002 2.38596 136.168C4.02205 133.288 6.22622 130.935 8.99848 129.106C11.8162 127.278 15.0656 125.884 18.7468 124.924C22.4735 124.01 26.5864 123.21 31.0857 122.525C35.6304 121.793 40.0614 121.176 44.3789 120.674C48.7418 120.125 52.5593 119.6 55.8315 119.097L52.2867 121.291C52.423 113.978 51.0141 108.562 48.0601 105.042C45.106 101.523 39.9705 99.7633 32.6536 99.7633C27.609 99.7633 23.337 100.906 19.8376 103.191C16.3836 105.476 13.9522 109.087 12.5433 114.023L2.79498 111.144C4.47652 104.517 7.86231 99.3748 12.9524 95.7183C18.0424 92.0619 24.6549 90.2337 32.7899 90.2337C39.5161 90.2337 45.2197 91.5134 49.9007 94.0729C54.6272 96.5867 57.9675 100.243 59.9217 105.042C60.8307 107.19 61.4215 109.59 61.6942 112.241C61.9668 114.892 62.1032 117.588 62.1032 120.331V166.333H53.1729V147.754L55.7633 148.851C53.2638 155.204 49.3781 160.049 44.1062 163.385C38.8344 166.722 32.5173 168.39 25.1549 168.39ZM26.3138 159.683C30.9948 159.683 35.085 158.838 38.5844 157.147C42.0838 155.456 44.9015 153.147 47.0375 150.222C49.1735 147.251 50.5597 143.915 51.1959 140.213C51.7413 137.836 52.0367 135.231 52.0821 132.397C52.1276 129.518 52.1503 127.369 52.1503 125.953L55.9678 127.941C52.5593 128.398 48.8554 128.855 44.8561 129.312C40.9022 129.769 36.9938 130.295 33.1308 130.889C29.3132 131.483 25.8593 132.191 22.7689 133.014C20.6783 133.608 18.656 134.454 16.7017 135.551C14.7475 136.602 13.1342 138.019 11.8616 139.801C10.6346 141.584 10.021 143.801 10.021 146.452C10.021 148.6 10.5437 150.679 11.589 152.69C12.6797 154.701 14.4067 156.37 16.7699 157.695C19.1786 159.021 22.3599 159.683 26.3138 159.683Z" fill="#23272A"/>
<path d="M128.932 166.333V128.558C128.932 124.444 128.546 120.674 127.774 117.246C127.001 113.772 125.751 110.755 124.024 108.196C122.343 105.591 120.139 103.58 117.412 102.163C114.73 100.746 111.458 100.038 107.595 100.038C104.05 100.038 100.914 100.655 98.1877 101.889C95.5063 103.123 93.2339 104.905 91.3706 107.236C89.5527 109.521 88.1666 112.309 87.2122 115.6C86.2578 118.891 85.7806 122.639 85.7806 126.844L78.6909 125.267C78.6909 117.68 80.0089 111.304 82.6448 106.139C85.2807 100.974 88.9165 97.0666 93.5521 94.4157C98.1877 91.7648 103.505 90.4393 109.504 90.4393C113.912 90.4393 117.753 91.1249 121.025 92.4961C124.342 93.8673 127.137 95.7183 129.41 98.0493C131.727 100.38 133.591 103.054 135 106.071C136.408 109.042 137.431 112.218 138.067 115.6C138.704 118.937 139.022 122.273 139.022 125.61V166.333H128.932ZM75.6914 166.333V92.2904H84.7581V110.527H85.7806V166.333H75.6914Z" fill="#23272A"/>
<path d="M168.301 166.333L145.805 92.2218L155.826 92.2904L173.277 149.811L190.797 92.2904H199.932L217.452 149.811L235.04 92.2904H244.992L222.496 166.333H213.77L195.364 107.373L177.027 166.333H168.301Z" fill="#23272A"/>
<path d="M253.184 166.333V92.2904H262.182V110.116L260.41 107.785C261.228 105.591 262.296 103.58 263.614 101.751C264.932 99.8775 266.363 98.3464 267.908 97.1581C269.817 95.4669 272.044 94.1872 274.589 93.3188C277.134 92.4047 279.702 91.8791 282.292 91.7419C284.883 91.5591 287.246 91.7419 289.382 92.2904V101.751C286.701 101.066 283.769 100.906 280.588 101.272C277.407 101.637 274.475 102.917 271.794 105.111C269.34 107.03 267.499 109.339 266.272 112.035C265.045 114.686 264.227 117.52 263.818 120.536C263.409 123.507 263.205 126.455 263.205 129.381V166.333H253.184Z" fill="#23272A"/>
<path d="M298.156 166.333L298.224 67.6094H308.313V127.941L341.171 92.2904H354.533L320.038 129.312L359.032 166.333H344.443L308.313 130.683V166.333H298.156Z" fill="#23272A"/>
</svg>
