<svg width="94" height="28" viewBox="0 0 94 28" fill="none" xmlns="http://www.w3.org/2000/svg">
<rect x="0.159838" y="0.159838" width="93.0259" height="27.1725" rx="3.96399" fill="#242121"/>
<rect x="0.159838" y="0.159838" width="93.0259" height="27.1725" rx="3.96399" stroke="#555555" stroke-width="0.319677"/>
<path d="M17.8756 13.9145C17.884 13.3264 18.056 12.7497 18.3757 12.2382C18.6953 11.7266 19.1523 11.2969 19.704 10.9888C19.3535 10.5342 18.8912 10.1601 18.3536 9.89613C17.816 9.6322 17.2181 9.48574 16.6073 9.46839C15.3044 9.34418 14.0413 10.1764 13.3774 10.1764C12.7006 10.1764 11.6784 9.48072 10.5776 9.50129C9.86556 9.52218 9.17165 9.71022 8.56345 10.0471C7.95524 10.3839 7.45349 10.8581 7.10708 11.4235C5.60655 13.7829 6.72582 17.2506 8.16323 19.1578C8.8824 20.0917 9.7229 21.1349 10.8227 21.0979C11.8989 21.0574 12.3008 20.4747 13.5999 20.4747C14.8869 20.4747 15.264 21.0979 16.3861 21.0744C17.541 21.0574 18.2685 20.1363 18.9625 19.1936C19.4792 18.5281 19.8768 17.7927 20.1406 17.0144C19.4697 16.7567 18.8972 16.3254 18.4944 15.7741C18.0916 15.2229 17.8764 14.5761 17.8756 13.9145Z" fill="white"/>
<path d="M15.7553 8.21364C16.385 7.52717 16.6952 6.64481 16.62 5.75397C15.6581 5.84573 14.7695 6.26327 14.1313 6.92341C13.8193 7.24591 13.5803 7.62109 13.4281 8.02751C13.2758 8.43393 13.2132 8.86362 13.2439 9.29202C13.7251 9.29652 14.2011 9.20181 14.6361 9.01501C15.0711 8.82822 15.4538 8.55422 15.7553 8.21364Z" fill="white"/>
<path d="M27.6367 9.28674H26.2017V4.6369H27.7002C28.1513 4.6369 28.5373 4.72999 28.8581 4.91616C29.179 5.10083 29.425 5.36647 29.596 5.71309C29.7671 6.05819 29.8526 6.47141 29.8526 6.95274C29.8526 7.4371 29.7663 7.8541 29.5938 8.20375C29.4212 8.55188 29.1699 8.81979 28.84 9.00748C28.51 9.19366 28.1089 9.28674 27.6367 9.28674ZM26.7648 8.78725H27.6003C27.9848 8.78725 28.3034 8.71308 28.5562 8.56475C28.8089 8.41641 28.9974 8.20526 29.1215 7.9313C29.2456 7.65733 29.3077 7.33115 29.3077 6.95274C29.3077 6.57736 29.2464 6.2542 29.1238 5.98327C29.0012 5.71081 28.818 5.50194 28.5743 5.35663C28.3306 5.20981 28.0272 5.1364 27.6639 5.1364H26.7648V8.78725ZM32.1412 9.3594C31.8264 9.3594 31.5501 9.28447 31.3125 9.13462C31.0764 8.98478 30.8917 8.77514 30.7585 8.50571C30.6268 8.23629 30.561 7.92146 30.561 7.56122C30.561 7.19795 30.6268 6.88084 30.7585 6.60991C30.8917 6.33897 31.0764 6.12857 31.3125 5.97873C31.5501 5.82888 31.8264 5.75395 32.1412 5.75395C32.456 5.75395 32.7315 5.82888 32.9676 5.97873C33.2053 6.12857 33.3899 6.33897 33.5216 6.60991C33.6548 6.88084 33.7214 7.19795 33.7214 7.56122C33.7214 7.92146 33.6548 8.23629 33.5216 8.50571C33.3899 8.77514 33.2053 8.98478 32.9676 9.13462C32.7315 9.28447 32.456 9.3594 32.1412 9.3594ZM32.1412 8.87807C32.3803 8.87807 32.5771 8.81676 32.7315 8.69416C32.8859 8.57156 33.0002 8.41036 33.0743 8.21056C33.1485 8.01076 33.1856 7.79431 33.1856 7.56122C33.1856 7.32812 33.1485 7.11091 33.0743 6.9096C33.0002 6.70829 32.8859 6.54558 32.7315 6.42146C32.5771 6.29734 32.3803 6.23528 32.1412 6.23528C31.902 6.23528 31.7053 6.29734 31.5509 6.42146C31.3965 6.54558 31.2822 6.70829 31.208 6.9096C31.1339 7.11091 31.0968 7.32812 31.0968 7.56122C31.0968 7.79431 31.1339 8.01076 31.208 8.21056C31.2822 8.41036 31.3965 8.57156 31.5509 8.69416C31.7053 8.81676 31.902 8.87807 32.1412 8.87807ZM35.2108 9.28674L34.1482 5.79936H34.7113L35.4651 8.46939H35.5014L36.2461 5.79936H36.8183L37.5539 8.46031H37.5902L38.344 5.79936H38.9071L37.8445 9.28674H37.3178L36.5549 6.60763H36.5004L35.7375 9.28674H35.2108ZM40.1513 7.18887V9.28674H39.6154V5.79936H40.1331V6.34426H40.1785C40.2602 6.16717 40.3844 6.02489 40.5509 5.91742C40.7174 5.80844 40.9323 5.75395 41.1957 5.75395C41.4318 5.75395 41.6384 5.80239 41.8155 5.89926C41.9926 5.99462 42.1303 6.13993 42.2287 6.33518C42.3271 6.52893 42.3763 6.77413 42.3763 7.0708V9.28674H41.8405V7.10713C41.8405 6.83316 41.7693 6.61974 41.627 6.46687C41.4848 6.31248 41.2895 6.23528 41.0413 6.23528C40.8702 6.23528 40.7174 6.27237 40.5826 6.34654C40.4494 6.4207 40.3443 6.52893 40.2671 6.67121C40.1899 6.81349 40.1513 6.98604 40.1513 7.18887ZM43.8912 4.6369V9.28674H43.3554V4.6369H43.8912ZM46.2894 9.3594C45.9745 9.3594 45.6983 9.28447 45.4607 9.13462C45.2245 8.98478 45.0399 8.77514 44.9067 8.50571C44.775 8.23629 44.7092 7.92146 44.7092 7.56122C44.7092 7.19795 44.775 6.88084 44.9067 6.60991C45.0399 6.33897 45.2245 6.12857 45.4607 5.97873C45.6983 5.82888 45.9745 5.75395 46.2894 5.75395C46.6042 5.75395 46.8797 5.82888 47.1158 5.97873C47.3534 6.12857 47.5381 6.33897 47.6698 6.60991C47.803 6.88084 47.8696 7.19795 47.8696 7.56122C47.8696 7.92146 47.803 8.23629 47.6698 8.50571C47.5381 8.77514 47.3534 8.98478 47.1158 9.13462C46.8797 9.28447 46.6042 9.3594 46.2894 9.3594ZM46.2894 8.87807C46.5285 8.87807 46.7253 8.81676 46.8797 8.69416C47.0341 8.57156 47.1484 8.41036 47.2225 8.21056C47.2967 8.01076 47.3338 7.79431 47.3338 7.56122C47.3338 7.32812 47.2967 7.11091 47.2225 6.9096C47.1484 6.70829 47.0341 6.54558 46.8797 6.42146C46.7253 6.29734 46.5285 6.23528 46.2894 6.23528C46.0502 6.23528 45.8535 6.29734 45.6991 6.42146C45.5447 6.54558 45.4304 6.70829 45.3562 6.9096C45.2821 7.11091 45.245 7.32812 45.245 7.56122C45.245 7.79431 45.2821 8.01076 45.3562 8.21056C45.4304 8.41036 45.5447 8.57156 45.6991 8.69416C45.8535 8.81676 46.0502 8.87807 46.2894 8.87807ZM49.7138 9.36848C49.4928 9.36848 49.2922 9.32685 49.1121 9.2436C48.932 9.15884 48.7889 9.037 48.683 8.87807C48.577 8.71762 48.524 8.52388 48.524 8.29684C48.524 8.09704 48.5634 7.93508 48.6421 7.81096C48.7208 7.68533 48.826 7.58695 48.9577 7.51581C49.0894 7.44467 49.2347 7.39169 49.3936 7.35688C49.5541 7.32055 49.7153 7.29179 49.8772 7.2706C50.0891 7.24336 50.2609 7.22292 50.3926 7.2093C50.5258 7.19416 50.6227 7.16919 50.6832 7.13437C50.7453 7.09956 50.7763 7.03902 50.7763 6.95274V6.93458C50.7763 6.71056 50.715 6.53649 50.5924 6.41238C50.4713 6.28826 50.2874 6.2262 50.0407 6.2262C49.7849 6.2262 49.5843 6.28221 49.439 6.39421C49.2937 6.50622 49.1916 6.6258 49.1325 6.75294L48.6239 6.57131C48.7148 6.3594 48.8359 6.19442 48.9872 6.07635C49.1401 5.95678 49.3066 5.87353 49.4867 5.82661C49.6683 5.77817 49.8469 5.75395 50.0225 5.75395C50.1345 5.75395 50.2632 5.76758 50.4085 5.79482C50.5553 5.82055 50.6968 5.87429 50.8331 5.95602C50.9708 6.03776 51.0851 6.16112 51.1759 6.3261C51.2667 6.49109 51.3121 6.71207 51.3121 6.98907V9.28674H50.7763V8.81449H50.7491C50.7127 8.89017 50.6522 8.97115 50.5674 9.05743C50.4827 9.14371 50.3699 9.21712 50.2291 9.27766C50.0884 9.33821 49.9166 9.36848 49.7138 9.36848ZM49.7955 8.88715C50.0074 8.88715 50.186 8.84552 50.3313 8.76227C50.4781 8.67902 50.5886 8.57156 50.6628 8.43987C50.7385 8.30819 50.7763 8.16969 50.7763 8.02438V7.53397C50.7536 7.56122 50.7037 7.58619 50.6265 7.60889C50.5508 7.63009 50.463 7.64901 50.3631 7.66566C50.2647 7.68079 50.1686 7.69441 50.0747 7.70652C49.9824 7.71712 49.9075 7.7262 49.85 7.73377C49.7107 7.75193 49.5806 7.78145 49.4595 7.82232C49.3399 7.86167 49.243 7.92146 49.1688 8.00168C49.0962 8.08039 49.0599 8.18785 49.0599 8.32408C49.0599 8.51026 49.1287 8.65102 49.2665 8.74638C49.4057 8.84023 49.5821 8.88715 49.7955 8.88715ZM53.607 9.3594C53.3164 9.3594 53.0598 9.28599 52.8373 9.13917C52.6148 8.99083 52.4407 8.78195 52.3151 8.51253C52.1895 8.24159 52.1267 7.92146 52.1267 7.55213C52.1267 7.18584 52.1895 6.86798 52.3151 6.59855C52.4407 6.32913 52.6156 6.12101 52.8396 5.97418C53.0636 5.82736 53.3224 5.75395 53.6161 5.75395C53.8431 5.75395 54.0225 5.79179 54.1541 5.86747C54.2873 5.94164 54.3888 6.0264 54.4584 6.12176C54.5295 6.21561 54.5848 6.2928 54.6241 6.35335H54.6695V4.6369H55.2054V9.28674H54.6877V8.75092H54.6241C54.5848 8.81449 54.5288 8.89472 54.4561 8.99159C54.3835 9.08695 54.2798 9.17246 54.1451 9.24815C54.0104 9.32231 53.831 9.3594 53.607 9.3594ZM53.6796 8.87807C53.8946 8.87807 54.0762 8.82206 54.2245 8.71005C54.3729 8.59653 54.4856 8.43987 54.5628 8.24007C54.64 8.03876 54.6786 7.80642 54.6786 7.54305C54.6786 7.28271 54.6408 7.05491 54.5651 6.85965C54.4894 6.66288 54.3774 6.51001 54.2291 6.40103C54.0807 6.29053 53.8976 6.23528 53.6796 6.23528C53.4526 6.23528 53.2634 6.29356 53.112 6.41011C52.9622 6.52514 52.8494 6.6818 52.7737 6.88009C52.6996 7.07686 52.6625 7.29785 52.6625 7.54305C52.6625 7.79129 52.7003 8.01682 52.776 8.21964C52.8532 8.42095 52.9667 8.5814 53.1166 8.70097C53.2679 8.81903 53.4556 8.87807 53.6796 8.87807ZM59.476 9.3594C59.1612 9.3594 58.885 9.28447 58.6473 9.13462C58.4112 8.98478 58.2265 8.77514 58.0933 8.50571C57.9617 8.23629 57.8958 7.92146 57.8958 7.56122C57.8958 7.19795 57.9617 6.88084 58.0933 6.60991C58.2265 6.33897 58.4112 6.12857 58.6473 5.97873C58.885 5.82888 59.1612 5.75395 59.476 5.75395C59.7909 5.75395 60.0663 5.82888 60.3025 5.97873C60.5401 6.12857 60.7248 6.33897 60.8565 6.60991C60.9897 6.88084 61.0563 7.19795 61.0563 7.56122C61.0563 7.92146 60.9897 8.23629 60.8565 8.50571C60.7248 8.77514 60.5401 8.98478 60.3025 9.13462C60.0663 9.28447 59.7909 9.3594 59.476 9.3594ZM59.476 8.87807C59.7152 8.87807 59.912 8.81676 60.0663 8.69416C60.2207 8.57156 60.335 8.41036 60.4092 8.21056C60.4834 8.01076 60.5204 7.79431 60.5204 7.56122C60.5204 7.32812 60.4834 7.11091 60.4092 6.9096C60.335 6.70829 60.2207 6.54558 60.0663 6.42146C59.912 6.29734 59.7152 6.23528 59.476 6.23528C59.2369 6.23528 59.0401 6.29734 58.8857 6.42146C58.7313 6.54558 58.6171 6.70829 58.5429 6.9096C58.4687 7.11091 58.4316 7.32812 58.4316 7.56122C58.4316 7.79431 58.4687 8.01076 58.5429 8.21056C58.6171 8.41036 58.7313 8.57156 58.8857 8.69416C59.0401 8.81676 59.2369 8.87807 59.476 8.87807ZM62.41 7.18887V9.28674H61.8742V5.79936H62.3918V6.34426H62.4372C62.519 6.16717 62.6431 6.02489 62.8096 5.91742C62.9761 5.80844 63.191 5.75395 63.4544 5.75395C63.6905 5.75395 63.8971 5.80239 64.0742 5.89926C64.2513 5.99462 64.3891 6.13993 64.4874 6.33518C64.5858 6.52893 64.635 6.77413 64.635 7.0708V9.28674H64.0992V7.10713C64.0992 6.83316 64.0281 6.61974 63.8858 6.46687C63.7435 6.31248 63.5482 6.23528 63.3 6.23528C63.129 6.23528 62.9761 6.27237 62.8414 6.34654C62.7082 6.4207 62.603 6.52893 62.5258 6.67121C62.4486 6.81349 62.41 6.98604 62.41 7.18887ZM68.929 5.79936V6.25345H67.1217V5.79936H68.929ZM67.6485 4.96384H68.1843V8.28775C68.1843 8.43912 68.2062 8.55264 68.2501 8.62832C68.2955 8.70249 68.353 8.75244 68.4227 8.77817C68.4938 8.80238 68.5687 8.81449 68.6474 8.81449C68.7065 8.81449 68.7549 8.81147 68.7927 8.80541C68.8306 8.79784 68.8609 8.79179 68.8836 8.78725L68.9925 9.26858C68.9562 9.2822 68.9055 9.29582 68.8404 9.30945C68.7753 9.32458 68.6928 9.33215 68.593 9.33215C68.4416 9.33215 68.2933 9.29961 68.1479 9.23452C68.0042 9.16944 67.8846 9.0703 67.7892 8.9371C67.6954 8.8039 67.6485 8.63589 67.6485 8.43306V4.96384ZM70.3457 7.18887V9.28674H69.8099V4.6369H70.3457V6.34426H70.3911C70.4729 6.16414 70.5955 6.02111 70.7589 5.91515C70.9239 5.80769 71.1434 5.75395 71.4174 5.75395C71.655 5.75395 71.8631 5.80163 72.0417 5.89699C72.2203 5.99083 72.3588 6.13539 72.4572 6.33064C72.5571 6.52439 72.6071 6.77111 72.6071 7.0708V9.28674H72.0713V7.10713C72.0713 6.83014 71.9994 6.61596 71.8556 6.4646C71.7133 6.31172 71.5158 6.23528 71.263 6.23528C71.0874 6.23528 70.93 6.27237 70.7907 6.34654C70.653 6.4207 70.544 6.52893 70.4638 6.67121C70.3851 6.81349 70.3457 6.98604 70.3457 7.18887ZM75.0495 9.3594C74.7135 9.3594 74.4236 9.28523 74.1799 9.13689C73.9377 8.98705 73.7508 8.77817 73.6191 8.51026C73.4889 8.24083 73.4239 7.92751 73.4239 7.5703C73.4239 7.21308 73.4889 6.89825 73.6191 6.6258C73.7508 6.35183 73.9339 6.13841 74.1686 5.98554C74.4047 5.83115 74.6802 5.75395 74.995 5.75395C75.1766 5.75395 75.356 5.78423 75.5331 5.84477C75.7102 5.90531 75.8714 6.0037 76.0167 6.13993C76.162 6.27464 76.2778 6.45325 76.3641 6.67575C76.4503 6.89825 76.4935 7.17222 76.4935 7.49764V7.72469H73.8053V7.26152H75.9486C75.9486 7.06475 75.9092 6.88917 75.8305 6.73478C75.7533 6.58039 75.6428 6.45854 75.499 6.36924C75.3568 6.27994 75.1887 6.23528 74.995 6.23528C74.7816 6.23528 74.5969 6.28826 74.441 6.39421C74.2866 6.49865 74.1678 6.63488 74.0846 6.80289C74.0013 6.9709 73.9597 7.15102 73.9597 7.34325V7.65203C73.9597 7.9154 74.0051 8.13866 74.0959 8.32181C74.1882 8.50344 74.3161 8.64194 74.4796 8.7373C74.6431 8.83114 74.833 8.87807 75.0495 8.87807C75.1903 8.87807 75.3174 8.85839 75.4309 8.81903C75.546 8.77817 75.6451 8.71762 75.7283 8.6374C75.8116 8.55566 75.8759 8.45425 75.9213 8.33316L76.439 8.47847C76.3845 8.65405 76.2929 8.80844 76.1643 8.94164C76.0356 9.07332 75.8767 9.17625 75.6875 9.25042C75.4983 9.32307 75.2856 9.3594 75.0495 9.3594Z" fill="white"/>
<path d="M27.3279 21.5654H25.8893L28.5085 14.1257H30.1723L32.7951 21.5654H31.3565L29.3694 15.6514H29.3113L27.3279 21.5654ZM27.3751 18.6484H31.2984V19.7309H27.3751V18.6484ZM33.3938 23.6579V15.9856H34.6871V16.9083H34.7634C34.8312 16.7727 34.9268 16.6286 35.0503 16.476C35.1738 16.321 35.341 16.1891 35.5516 16.0801C35.7623 15.9687 36.0312 15.913 36.3581 15.913C36.7892 15.913 37.1779 16.0232 37.5242 16.2435C37.8729 16.4615 38.149 16.7848 38.3525 17.2135C38.5583 17.6397 38.6612 18.1628 38.6612 18.7828C38.6612 19.3955 38.5607 19.9162 38.3597 20.3448C38.1587 20.7735 37.885 21.1004 37.5387 21.3257C37.1924 21.5509 36.8001 21.6635 36.3617 21.6635C36.0421 21.6635 35.7769 21.6102 35.5662 21.5037C35.3555 21.3971 35.186 21.2688 35.0576 21.1186C34.9317 20.966 34.8336 20.8219 34.7634 20.6863H34.7089V23.6579H33.3938ZM34.6834 18.7755C34.6834 19.1364 34.7343 19.4524 34.836 19.7237C34.9401 19.9949 35.0891 20.2068 35.2828 20.3594C35.479 20.5095 35.7163 20.5846 35.9948 20.5846C36.2855 20.5846 36.5288 20.5071 36.725 20.3521C36.9212 20.1947 37.0689 19.9804 37.1682 19.7091C37.2699 19.4355 37.3208 19.1243 37.3208 18.7755C37.3208 18.4292 37.2711 18.1216 37.1718 17.8528C37.0725 17.584 36.9248 17.3733 36.7286 17.2207C36.5325 17.0682 36.2879 16.9919 35.9948 16.9919C35.7139 16.9919 35.4754 17.0657 35.2792 17.2135C35.083 17.3612 34.9341 17.5683 34.8324 17.8347C34.7331 18.1011 34.6834 18.4147 34.6834 18.7755ZM39.4643 23.6579V15.9856H40.7576V16.9083H40.8339C40.9017 16.7727 40.9973 16.6286 41.1208 16.476C41.2443 16.321 41.4115 16.1891 41.6221 16.0801C41.8328 15.9687 42.1017 15.913 42.4286 15.913C42.8597 15.913 43.2484 16.0232 43.5947 16.2435C43.9434 16.4615 44.2195 16.7848 44.4229 17.2135C44.6288 17.6397 44.7317 18.1628 44.7317 18.7828C44.7317 19.3955 44.6312 19.9162 44.4302 20.3448C44.2292 20.7735 43.9555 21.1004 43.6092 21.3257C43.2629 21.5509 42.8706 21.6635 42.4322 21.6635C42.1126 21.6635 41.8474 21.6102 41.6367 21.5037C41.426 21.3971 41.2565 21.2688 41.1281 21.1186C41.0022 20.966 40.9041 20.8219 40.8339 20.6863H40.7794V23.6579H39.4643ZM40.7539 18.7755C40.7539 19.1364 40.8048 19.4524 40.9065 19.7237C41.0106 19.9949 41.1596 20.2068 41.3533 20.3594C41.5495 20.5095 41.7868 20.5846 42.0653 20.5846C42.356 20.5846 42.5993 20.5071 42.7955 20.3521C42.9917 20.1947 43.1394 19.9804 43.2387 19.7091C43.3404 19.4355 43.3913 19.1243 43.3913 18.7755C43.3913 18.4292 43.3416 18.1216 43.2423 17.8528C43.143 17.584 42.9953 17.3733 42.7991 17.2207C42.603 17.0682 42.3584 16.9919 42.0653 16.9919C41.7844 16.9919 41.5459 17.0657 41.3497 17.2135C41.1535 17.3612 41.0046 17.5683 40.9029 17.8347C40.8036 18.1011 40.7539 18.4147 40.7539 18.7755ZM51.8505 16.1709C51.8166 15.8536 51.6737 15.6066 51.4219 15.4298C51.1724 15.253 50.8479 15.1646 50.4483 15.1646C50.1674 15.1646 49.9264 15.207 49.7254 15.2918C49.5244 15.3765 49.3706 15.4916 49.2641 15.6369C49.1575 15.7822 49.103 15.9481 49.1006 16.1346C49.1006 16.2896 49.1357 16.424 49.2059 16.5378C49.2786 16.6516 49.3767 16.7485 49.5002 16.8284C49.6237 16.9059 49.7605 16.9713 49.9107 17.0246C50.0608 17.0778 50.2122 17.1227 50.3648 17.159L51.0622 17.3333C51.3432 17.3987 51.6132 17.4871 51.8723 17.5985C52.1339 17.7099 52.3676 17.8504 52.5734 18.0199C52.7817 18.1895 52.9464 18.3941 53.0675 18.6338C53.1886 18.8736 53.2491 19.1545 53.2491 19.4766C53.2491 19.9126 53.1377 20.2964 52.9149 20.6282C52.6921 20.9576 52.37 21.2155 51.9486 21.402C51.5296 21.586 51.0223 21.678 50.4265 21.678C49.8477 21.678 49.3452 21.5884 48.919 21.4092C48.4951 21.23 48.1634 20.9685 47.9236 20.6246C47.6863 20.2807 47.5579 19.8617 47.5385 19.3677H48.8645C48.8838 19.6268 48.9638 19.8423 49.1042 20.0143C49.2447 20.1862 49.4275 20.3146 49.6528 20.3993C49.8804 20.4841 50.1347 20.5265 50.4156 20.5265C50.7087 20.5265 50.9654 20.4829 51.1858 20.3957C51.4086 20.3061 51.5829 20.1826 51.7089 20.0252C51.8348 19.8653 51.899 19.6789 51.9014 19.4657C51.899 19.272 51.8421 19.1122 51.7307 18.9862C51.6193 18.8579 51.463 18.7513 51.262 18.6665C51.0635 18.5794 50.831 18.5019 50.5646 18.4341L49.7181 18.2161C49.1054 18.0587 48.6211 17.8201 48.2651 17.5005C47.9115 17.1784 47.7347 16.7509 47.7347 16.2181C47.7347 15.7798 47.8534 15.3959 48.0907 15.0665C48.3305 14.7372 48.6562 14.4817 49.0679 14.3001C49.4796 14.116 49.9458 14.024 50.4665 14.024C50.9944 14.024 51.457 14.116 51.8542 14.3001C52.2538 14.4817 52.5674 14.7348 52.795 15.0593C53.0227 15.3814 53.1401 15.7519 53.1474 16.1709H51.8505ZM56.8557 15.9856V17.0028H53.6481V15.9856H56.8557ZM54.44 14.6488H55.755V19.8871C55.755 20.0639 55.7817 20.1995 55.835 20.294C55.8907 20.386 55.9633 20.449 56.0529 20.4829C56.1425 20.5168 56.2418 20.5337 56.3508 20.5337C56.4331 20.5337 56.5082 20.5277 56.576 20.5156C56.6463 20.5035 56.6995 20.4926 56.7359 20.4829L56.9575 21.5109C56.8872 21.5352 56.7867 21.5618 56.6559 21.5909C56.5276 21.6199 56.3702 21.6369 56.1837 21.6417C55.8543 21.6514 55.5577 21.6018 55.2937 21.4928C55.0297 21.3814 54.8202 21.2094 54.6652 20.9769C54.5127 20.7444 54.4376 20.4538 54.44 20.1051V14.6488ZM60.0065 21.6744C59.4616 21.6744 58.9893 21.5545 58.5897 21.3148C58.1901 21.075 57.8801 20.7396 57.6598 20.3085C57.4418 19.8774 57.3328 19.3737 57.3328 18.7973C57.3328 18.2209 57.4418 17.716 57.6598 17.2825C57.8801 16.849 58.1901 16.5124 58.5897 16.2726C58.9893 16.0328 59.4616 15.913 60.0065 15.913C60.5514 15.913 61.0236 16.0328 61.4232 16.2726C61.8228 16.5124 62.1316 16.849 62.3496 17.2825C62.5699 17.716 62.6801 18.2209 62.6801 18.7973C62.6801 19.3737 62.5699 19.8774 62.3496 20.3085C62.1316 20.7396 61.8228 21.075 61.4232 21.3148C61.0236 21.5545 60.5514 21.6744 60.0065 21.6744ZM60.0137 20.6209C60.3092 20.6209 60.5562 20.5398 60.7548 20.3775C60.9534 20.2129 61.1011 19.9925 61.198 19.7164C61.2973 19.4403 61.3469 19.1327 61.3469 18.7937C61.3469 18.4522 61.2973 18.1434 61.198 17.8674C61.1011 17.5888 60.9534 17.3673 60.7548 17.2026C60.5562 17.0379 60.3092 16.9555 60.0137 16.9555C59.711 16.9555 59.4591 17.0379 59.2581 17.2026C59.0596 17.3673 58.9106 17.5888 58.8113 17.8674C58.7144 18.1434 58.666 18.4522 58.666 18.7937C58.666 19.1327 58.7144 19.4403 58.8113 19.7164C58.9106 19.9925 59.0596 20.2129 59.2581 20.3775C59.4591 20.5398 59.711 20.6209 60.0137 20.6209ZM63.4732 21.5654V15.9856H64.7483V16.9156H64.8064C64.9082 16.5935 65.0825 16.3453 65.3295 16.1709C65.579 15.9941 65.8636 15.9057 66.1832 15.9057C66.2559 15.9057 66.337 15.9093 66.4266 15.9166C66.5186 15.9214 66.5949 15.9299 66.6555 15.942V17.1517C66.5998 17.1323 66.5114 17.1154 66.3903 17.1009C66.2716 17.0839 66.1566 17.0754 66.0452 17.0754C65.8054 17.0754 65.5899 17.1275 65.3986 17.2316C65.2097 17.3333 65.0607 17.475 64.9517 17.6567C64.8428 17.8383 64.7883 18.0478 64.7883 18.2851V21.5654H63.4732ZM69.4466 21.6744C68.8871 21.6744 68.404 21.5582 67.9971 21.3257C67.5927 21.0908 67.2815 20.759 67.0635 20.3303C66.8456 19.8992 66.7366 19.3919 66.7366 18.8082C66.7366 18.2343 66.8456 17.7305 67.0635 17.297C67.2839 16.8611 67.5915 16.522 67.9862 16.2799C68.381 16.0353 68.8448 15.913 69.3775 15.913C69.7214 15.913 70.046 15.9687 70.3511 16.0801C70.6587 16.1891 70.9299 16.3586 71.1648 16.5886C71.4022 16.8187 71.5886 17.1118 71.7243 17.4678C71.8599 17.8213 71.9277 18.2427 71.9277 18.7319V19.1352H67.3541V18.2488H70.6672C70.6647 17.9969 70.6102 17.7729 70.5037 17.5767C70.3971 17.3782 70.2482 17.2219 70.0569 17.1081C69.868 16.9943 69.6476 16.9374 69.3957 16.9374C69.1269 16.9374 68.8908 17.0028 68.6873 17.1335C68.4839 17.2619 68.3253 17.4314 68.2115 17.6421C68.1001 17.8504 68.0431 18.0793 68.0407 18.3287V19.1025C68.0407 19.427 68.1001 19.7055 68.2187 19.938C68.3374 20.1681 68.5033 20.3448 68.7164 20.4684C68.9295 20.5894 69.179 20.65 69.4647 20.65C69.6561 20.65 69.8292 20.6234 69.9842 20.5701C70.1392 20.5144 70.2736 20.4332 70.3874 20.3267C70.5013 20.2201 70.5872 20.0881 70.6454 19.9307L71.8732 20.0688C71.7957 20.3933 71.648 20.6766 71.43 20.9188C71.2145 21.1586 70.9384 21.345 70.6018 21.4782C70.2651 21.609 69.8801 21.6744 69.4466 21.6744Z" fill="white"/>
</svg>
