<svg width="59" height="24" viewBox="0 0 59 24" fill="none" xmlns="http://www.w3.org/2000/svg">
<path d="M17.0127 12.9735L14.0735 14.637L11.4372 12.0172L14.0945 9.37645L17.0127 11.028C17.1849 11.1253 17.3282 11.2667 17.4279 11.4376C17.5276 11.6085 17.5802 11.8028 17.5802 12.0007C17.5802 12.1986 17.5276 12.3929 17.4279 12.5638C17.3282 12.7347 17.1849 12.8761 17.0127 12.9735ZM1.50197 3.69295C1.44657 3.82815 1.41804 3.97285 1.41797 4.11895V19.8817C1.41797 20.0445 1.45172 20.196 1.51097 20.3317L9.87722 12.0165L1.50197 3.69295ZM10.6572 11.2417L13.1007 8.8132L3.08672 3.1462C2.87199 3.02308 2.62208 2.97579 2.37722 3.01195L10.6572 11.2417ZM10.6572 12.792L2.40722 20.9917C2.63072 21.0187 2.86622 20.9797 3.08672 20.8545L13.0797 15.1995L10.6572 12.792Z" fill="white"/>
<line x1="26.75" y1="2" x2="26.75" y2="22" stroke="#F5F5F5" stroke-width="0.5"/>
<path d="M51.5492 20.28C50.5692 21.23 49.4992 21.08 48.4692 20.63C47.3792 20.17 46.3792 20.15 45.2292 20.63C43.7892 21.25 43.0292 21.07 42.1692 20.28C37.2892 15.25 38.0092 7.59 43.5492 7.31C44.8992 7.38 45.8392 8.05 46.6292 8.11C47.8092 7.87 48.9392 7.18 50.1992 7.27C51.7092 7.39 52.8492 7.99 53.5992 9.07C50.4792 10.94 51.2192 15.05 54.0792 16.2C53.5092 17.7 52.7692 19.19 51.5392 20.29L51.5492 20.28ZM46.5292 7.25C46.3792 5.02 48.1892 3.18 50.2692 3C50.5592 5.58 47.9292 7.5 46.5292 7.25Z" fill="white"/>
</svg>
