<svg width="95" height="28" viewBox="0 0 95 28" fill="none" xmlns="http://www.w3.org/2000/svg">
<rect x="1.00164" y="0.159838" width="93.0259" height="27.1725" rx="3.96399" fill="#242121"/>
<rect x="1.00164" y="0.159838" width="93.0259" height="27.1725" rx="3.96399" stroke="#555555" stroke-width="0.319677"/>
<path d="M16.3902 13.057L9.71289 20.3041C9.71352 20.3054 9.71352 20.3074 9.71414 20.3086C9.91922 21.0956 10.6216 21.6747 11.4558 21.6747C11.7894 21.6747 12.1023 21.5823 12.3708 21.4207L12.3921 21.4079L19.9079 16.973L16.3902 13.057Z" fill="#EA4335"/>
<path d="M23.149 11.8229L23.1428 11.8184L19.8979 9.89501L16.2422 13.2216L19.911 16.9722L23.1384 15.068C23.7041 14.7551 24.0885 14.1452 24.0885 13.4422C24.0885 12.7432 23.7097 12.1365 23.149 11.8229Z" fill="#FBBC04"/>
<path d="M9.71771 6.54969C9.67757 6.70104 9.65625 6.86009 9.65625 7.02427V19.8305C9.65625 19.9947 9.67757 20.1537 9.71834 20.3044L16.6246 13.2427L9.71771 6.54969Z" fill="#4285F4"/>
<path d="M16.4397 13.4263L19.8954 9.89314L12.3883 5.44226C12.1155 5.27487 11.7969 5.17867 11.4564 5.17867C10.6223 5.17867 9.9186 5.75908 9.71352 6.54665C9.71352 6.54729 9.71289 6.54793 9.71289 6.54857L16.4397 13.4263Z" fill="#34A853"/>
<path d="M33.3296 6.58998C33.2796 6.4371 33.2138 6.30012 33.132 6.17903C33.0518 6.05643 32.9557 5.95199 32.8437 5.86571C32.7332 5.77943 32.6076 5.71359 32.4668 5.66818C32.326 5.62277 32.1716 5.60007 32.0036 5.60007C31.7282 5.60007 31.4776 5.67121 31.2521 5.81349C31.0266 5.95577 30.8472 6.16541 30.714 6.4424C30.5808 6.71939 30.5142 7.0592 30.5142 7.46182C30.5142 7.86445 30.5816 8.20425 30.7163 8.48125C30.851 8.75824 31.0334 8.96787 31.2635 9.11015C31.4935 9.25244 31.7524 9.32358 32.04 9.32358C32.3064 9.32358 32.541 9.26681 32.7438 9.15329C32.9481 9.03826 33.1071 8.8763 33.2206 8.66742C33.3356 8.45703 33.3931 8.20955 33.3931 7.92499L33.5657 7.96132H32.1671V7.46182H33.938V7.96132C33.938 8.34426 33.8563 8.67726 33.6928 8.96031C33.5309 9.24335 33.3069 9.46283 33.0208 9.61873C32.7362 9.77312 32.4093 9.85032 32.04 9.85032C31.6283 9.85032 31.2665 9.75344 30.9547 9.5597C30.6444 9.36596 30.4022 9.09048 30.2282 8.73326C30.0556 8.37605 29.9693 7.95224 29.9693 7.46182C29.9693 7.09401 30.0185 6.76329 30.1169 6.46964C30.2168 6.17449 30.3576 5.92323 30.5392 5.71586C30.7208 5.5085 30.9358 5.34956 31.184 5.23907C31.4322 5.12858 31.7054 5.07333 32.0036 5.07333C32.2488 5.07333 32.4774 5.11041 32.6893 5.18458C32.9027 5.25723 33.0927 5.36092 33.2592 5.49563C33.4272 5.62883 33.5672 5.78851 33.6792 5.97469C33.7912 6.15935 33.8684 6.36445 33.9108 6.58998H33.3296ZM36.2919 9.8594C35.9559 9.8594 35.666 9.78523 35.4223 9.63689C35.1802 9.48705 34.9932 9.27817 34.8615 9.01026C34.7314 8.74083 34.6663 8.42751 34.6663 8.0703C34.6663 7.71308 34.7314 7.39825 34.8615 7.1258C34.9932 6.85183 35.1764 6.63841 35.411 6.48554C35.6471 6.33115 35.9226 6.25395 36.2374 6.25395C36.419 6.25395 36.5984 6.28423 36.7755 6.34477C36.9526 6.40531 37.1138 6.5037 37.2591 6.63993C37.4044 6.77464 37.5202 6.95325 37.6065 7.17575C37.6928 7.39825 37.7359 7.67222 37.7359 7.99764V8.22469H35.0477V7.76152H37.191C37.191 7.56475 37.1516 7.38917 37.0729 7.23478C36.9957 7.08039 36.8852 6.95854 36.7415 6.86924C36.5992 6.77994 36.4312 6.73528 36.2374 6.73528C36.024 6.73528 35.8393 6.78826 35.6834 6.89421C35.529 6.99865 35.4102 7.13488 35.327 7.30289C35.2437 7.4709 35.2021 7.65102 35.2021 7.84325V8.15203C35.2021 8.4154 35.2475 8.63866 35.3383 8.82181C35.4307 9.00344 35.5586 9.14194 35.722 9.2373C35.8855 9.33114 36.0755 9.37807 36.2919 9.37807C36.4327 9.37807 36.5598 9.35839 36.6733 9.31903C36.7884 9.27817 36.8875 9.21762 36.9708 9.1374C37.054 9.05566 37.1183 8.95425 37.1638 8.83316L37.6814 8.97847C37.6269 9.15405 37.5353 9.30844 37.4067 9.44164C37.278 9.57332 37.1191 9.67625 36.9299 9.75042C36.7407 9.82307 36.528 9.8594 36.2919 9.8594ZM40.0676 6.29936V6.75345H38.2604V6.29936H40.0676ZM38.7871 5.46384H39.3229V8.78775C39.3229 8.93912 39.3449 9.05264 39.3888 9.12832C39.4342 9.20249 39.4917 9.25244 39.5613 9.27817C39.6325 9.30238 39.7074 9.31449 39.7861 9.31449C39.8451 9.31449 39.8936 9.31147 39.9314 9.30541C39.9692 9.29784 39.9995 9.29179 40.0222 9.28725L40.1312 9.76858C40.0949 9.7822 40.0442 9.79582 39.9791 9.80945C39.914 9.82458 39.8315 9.83215 39.7316 9.83215C39.5802 9.83215 39.4319 9.79961 39.2866 9.73452C39.1428 9.66944 39.0232 9.5703 38.9279 9.4371C38.834 9.3039 38.7871 9.13589 38.7871 8.93306V5.46384ZM42.6718 9.78674V6.29936H43.2076V9.78674H42.6718ZM42.9443 5.71813C42.8398 5.71813 42.7498 5.68256 42.6741 5.61142C42.5999 5.54028 42.5628 5.45476 42.5628 5.35486C42.5628 5.25496 42.5999 5.16944 42.6741 5.0983C42.7498 5.02716 42.8398 4.99159 42.9443 4.99159C43.0487 4.99159 43.138 5.02716 43.2122 5.0983C43.2879 5.16944 43.3257 5.25496 43.3257 5.35486C43.3257 5.45476 43.2879 5.54028 43.2122 5.61142C43.138 5.68256 43.0487 5.71813 42.9443 5.71813ZM45.7057 6.29936V6.75345H43.8984V6.29936H45.7057ZM44.4252 5.46384H44.961V8.78775C44.961 8.93912 44.9829 9.05264 45.0268 9.12832C45.0722 9.20249 45.1297 9.25244 45.1994 9.27817C45.2705 9.30238 45.3454 9.31449 45.4241 9.31449C45.4832 9.31449 45.5316 9.31147 45.5695 9.30541C45.6073 9.29784 45.6376 9.29179 45.6603 9.28725L45.7692 9.76858C45.7329 9.7822 45.6822 9.79582 45.6171 9.80945C45.552 9.82458 45.4696 9.83215 45.3697 9.83215C45.2183 9.83215 45.07 9.79961 44.9246 9.73452C44.7809 9.66944 44.6613 9.5703 44.5659 9.4371C44.4721 9.3039 44.4252 9.13589 44.4252 8.93306V5.46384ZM49.7266 9.8594C49.4118 9.8594 49.1355 9.78447 48.8979 9.63462C48.6618 9.48478 48.4771 9.27514 48.3439 9.00571C48.2122 8.73629 48.1464 8.42146 48.1464 8.06122C48.1464 7.69795 48.2122 7.38084 48.3439 7.10991C48.4771 6.83897 48.6618 6.62857 48.8979 6.47873C49.1355 6.32888 49.4118 6.25395 49.7266 6.25395C50.0414 6.25395 50.3169 6.32888 50.553 6.47873C50.7907 6.62857 50.9753 6.83897 51.107 7.10991C51.2402 7.38084 51.3068 7.69795 51.3068 8.06122C51.3068 8.42146 51.2402 8.73629 51.107 9.00571C50.9753 9.27514 50.7907 9.48478 50.553 9.63462C50.3169 9.78447 50.0414 9.8594 49.7266 9.8594ZM49.7266 9.37807C49.9658 9.37807 50.1625 9.31676 50.3169 9.19416C50.4713 9.07156 50.5856 8.91036 50.6598 8.71056C50.7339 8.51076 50.771 8.29431 50.771 8.06122C50.771 7.82812 50.7339 7.61091 50.6598 7.4096C50.5856 7.20829 50.4713 7.04558 50.3169 6.92146C50.1625 6.79734 49.9658 6.73528 49.7266 6.73528C49.4875 6.73528 49.2907 6.79734 49.1363 6.92146C48.9819 7.04558 48.8676 7.20829 48.7935 7.4096C48.7193 7.61091 48.6822 7.82812 48.6822 8.06122C48.6822 8.29431 48.7193 8.51076 48.7935 8.71056C48.8676 8.91036 48.9819 9.07156 49.1363 9.19416C49.2907 9.31676 49.4875 9.37807 49.7266 9.37807ZM52.6606 7.68887V9.78674H52.1248V6.29936H52.6424V6.84426H52.6878C52.7696 6.66717 52.8937 6.52489 53.0602 6.41742C53.2267 6.30844 53.4416 6.25395 53.705 6.25395C53.9411 6.25395 54.1477 6.30239 54.3248 6.39926C54.5019 6.49462 54.6396 6.63993 54.738 6.83518C54.8364 7.02893 54.8856 7.27413 54.8856 7.5708V9.78674H54.3498V7.60713C54.3498 7.33316 54.2786 7.11974 54.1364 6.96687C53.9941 6.81248 53.7988 6.73528 53.5506 6.73528C53.3795 6.73528 53.2267 6.77237 53.092 6.84654C52.9588 6.9207 52.8536 7.02893 52.7764 7.17121C52.6992 7.31349 52.6606 7.48604 52.6606 7.68887Z" fill="white"/>
<path d="M35.3057 17.0015C35.2452 16.8053 35.1616 16.6297 35.0551 16.4747C34.951 16.3173 34.825 16.1829 34.6773 16.0715C34.532 15.9601 34.3649 15.8765 34.176 15.8208C33.9871 15.7627 33.7812 15.7337 33.5584 15.7337C33.1588 15.7337 32.8028 15.8342 32.4904 16.0352C32.178 16.2362 31.9322 16.5316 31.753 16.9215C31.5762 17.309 31.4878 17.7813 31.4878 18.3383C31.4878 18.9001 31.5762 19.376 31.753 19.7659C31.9298 20.1558 32.1756 20.4525 32.4904 20.6559C32.8052 20.857 33.1709 20.9575 33.5875 20.9575C33.9653 20.9575 34.2922 20.8848 34.5683 20.7395C34.8468 20.5942 35.0611 20.3883 35.2113 20.1219C35.3614 19.8531 35.4365 19.5383 35.4365 19.1774L35.7417 19.2247H33.7219V18.1712H36.7407V19.0648C36.7407 19.7018 36.605 20.2527 36.3338 20.7177C36.0626 21.1827 35.6896 21.5411 35.2149 21.793C34.7403 22.0424 34.1954 22.1671 33.5802 22.1671C32.8948 22.1671 32.293 22.0134 31.7748 21.7058C31.2589 21.3958 30.8557 20.9562 30.5651 20.3871C30.2769 19.8156 30.1328 19.1375 30.1328 18.3528C30.1328 17.7522 30.2176 17.2158 30.3871 16.7435C30.559 16.2713 30.7988 15.8705 31.1064 15.5411C31.4139 15.2093 31.7748 14.9575 32.1889 14.7855C32.603 14.6112 33.0535 14.524 33.5403 14.524C33.952 14.524 34.3358 14.5845 34.6918 14.7056C35.0478 14.8243 35.3639 14.9938 35.6399 15.2142C35.9185 15.4346 36.1473 15.6961 36.3265 15.9988C36.5057 16.3016 36.6232 16.6358 36.6789 17.0015H35.3057ZM40.0966 22.1744C39.5517 22.1744 39.0795 22.0545 38.6799 21.8148C38.2803 21.575 37.9703 21.2396 37.7499 20.8085C37.5319 20.3774 37.423 19.8737 37.423 19.2973C37.423 18.7209 37.5319 18.216 37.7499 17.7825C37.9703 17.349 38.2803 17.0124 38.6799 16.7726C39.0795 16.5328 39.5517 16.413 40.0966 16.413C40.6415 16.413 41.1138 16.5328 41.5134 16.7726C41.913 17.0124 42.2217 17.349 42.4397 17.7825C42.6601 18.216 42.7703 18.7209 42.7703 19.2973C42.7703 19.8737 42.6601 20.3774 42.4397 20.8085C42.2217 21.2396 41.913 21.575 41.5134 21.8148C41.1138 22.0545 40.6415 22.1744 40.0966 22.1744ZM40.1039 21.1209C40.3994 21.1209 40.6464 21.0398 40.845 20.8775C41.0435 20.7129 41.1913 20.4925 41.2881 20.2164C41.3874 19.9403 41.4371 19.6327 41.4371 19.2937C41.4371 18.9522 41.3874 18.6434 41.2881 18.3674C41.1913 18.0888 41.0435 17.8673 40.845 17.7026C40.6464 17.5379 40.3994 17.4555 40.1039 17.4555C39.8012 17.4555 39.5493 17.5379 39.3483 17.7026C39.1497 17.8673 39.0008 18.0888 38.9015 18.3674C38.8046 18.6434 38.7562 18.9522 38.7562 19.2937C38.7562 19.6327 38.8046 19.9403 38.9015 20.2164C39.0008 20.4925 39.1497 20.7129 39.3483 20.8775C39.5493 21.0398 39.8012 21.1209 40.1039 21.1209ZM45.9973 22.1744C45.4524 22.1744 44.9801 22.0545 44.5805 21.8148C44.181 21.575 43.871 21.2396 43.6506 20.8085C43.4326 20.3774 43.3236 19.8737 43.3236 19.2973C43.3236 18.7209 43.4326 18.216 43.6506 17.7825C43.871 17.349 44.181 17.0124 44.5805 16.7726C44.9801 16.5328 45.4524 16.413 45.9973 16.413C46.5422 16.413 47.0145 16.5328 47.414 16.7726C47.8136 17.0124 48.1224 17.349 48.3404 17.7825C48.5608 18.216 48.671 18.7209 48.671 19.2973C48.671 19.8737 48.5608 20.3774 48.3404 20.8085C48.1224 21.2396 47.8136 21.575 47.414 21.8148C47.0145 22.0545 46.5422 22.1744 45.9973 22.1744ZM46.0046 21.1209C46.3 21.1209 46.547 21.0398 46.7456 20.8775C46.9442 20.7129 47.0919 20.4925 47.1888 20.2164C47.2881 19.9403 47.3378 19.6327 47.3378 19.2937C47.3378 18.9522 47.2881 18.6434 47.1888 18.3674C47.0919 18.0888 46.9442 17.8673 46.7456 17.7026C46.547 17.5379 46.3 17.4555 46.0046 17.4555C45.7018 17.4555 45.45 17.5379 45.249 17.7026C45.0504 17.8673 44.9014 18.0888 44.8021 18.3674C44.7053 18.6434 44.6568 18.9522 44.6568 19.2937C44.6568 19.6327 44.7053 19.9403 44.8021 20.2164C44.9014 20.4925 45.0504 20.7129 45.249 20.8775C45.45 21.0398 45.7018 21.1209 46.0046 21.1209ZM51.8907 24.2741C51.4185 24.2741 51.0128 24.2099 50.6738 24.0816C50.3347 23.9556 50.0623 23.7861 49.8564 23.573C49.6505 23.3599 49.5077 23.1238 49.4277 22.8646L50.612 22.5776C50.6653 22.6866 50.7428 22.7944 50.8445 22.9009C50.9462 23.0099 51.083 23.0995 51.255 23.1698C51.4294 23.2424 51.6485 23.2787 51.9125 23.2787C52.2855 23.2787 52.5942 23.1879 52.8388 23.0063C53.0834 22.8271 53.2057 22.5316 53.2057 22.1199V21.0628H53.1403C53.0725 21.1984 52.9732 21.3377 52.8425 21.4806C52.7141 21.6235 52.5434 21.7433 52.3303 21.8402C52.1196 21.9371 51.8544 21.9855 51.5347 21.9855C51.106 21.9855 50.7173 21.885 50.3686 21.684C50.0223 21.4806 49.7462 21.1778 49.5404 20.7758C49.3369 20.3714 49.2352 19.8652 49.2352 19.2574C49.2352 18.6446 49.3369 18.1276 49.5404 17.7062C49.7462 17.2824 50.0235 16.9615 50.3722 16.7435C50.721 16.5232 51.1097 16.413 51.5383 16.413C51.8653 16.413 52.1341 16.4687 52.3448 16.5801C52.5579 16.6891 52.7274 16.821 52.8534 16.976C52.9793 17.1286 53.075 17.2727 53.1403 17.4083H53.213V16.4856H54.5099V22.1562C54.5099 22.6333 54.396 23.0281 54.1684 23.3405C53.9408 23.6529 53.6296 23.8866 53.2348 24.0416C52.84 24.1966 52.392 24.2741 51.8907 24.2741ZM51.9016 20.9538C52.1801 20.9538 52.4174 20.886 52.6136 20.7504C52.8098 20.6148 52.9587 20.4198 53.0604 20.1655C53.1621 19.9112 53.213 19.6061 53.213 19.2501C53.213 18.8989 53.1621 18.5914 53.0604 18.3274C52.9611 18.0634 52.8134 17.8588 52.6172 17.7135C52.4235 17.5657 52.185 17.4919 51.9016 17.4919C51.6086 17.4919 51.364 17.5682 51.1678 17.7207C50.9716 17.8733 50.8239 18.0828 50.7246 18.3492C50.6253 18.6132 50.5757 18.9135 50.5757 19.2501C50.5757 19.5916 50.6253 19.8907 50.7246 20.1474C50.8263 20.4017 50.9753 20.6002 51.1714 20.7431C51.37 20.8836 51.6134 20.9538 51.9016 20.9538ZM56.8496 14.6257V22.0654H55.5346V14.6257H56.8496ZM60.3491 22.1744C59.7896 22.1744 59.3065 22.0582 58.8996 21.8257C58.4952 21.5908 58.184 21.259 57.966 20.8303C57.7481 20.3992 57.6391 19.8919 57.6391 19.3082C57.6391 18.7343 57.7481 18.2305 57.966 17.797C58.1864 17.3611 58.494 17.022 58.8887 16.7799C59.2835 16.5353 59.7472 16.413 60.28 16.413C60.6239 16.413 60.9485 16.4687 61.2536 16.5801C61.5612 16.6891 61.8324 16.8586 62.0673 17.0886C62.3047 17.3187 62.4911 17.6118 62.6268 17.9678C62.7624 18.3213 62.8302 18.7427 62.8302 19.2319V19.6352H58.2566V18.7488H61.5696C61.5672 18.4969 61.5127 18.2729 61.4062 18.0767C61.2996 17.8782 61.1507 17.7219 60.9594 17.6081C60.7705 17.4943 60.5501 17.4374 60.2982 17.4374C60.0294 17.4374 59.7933 17.5028 59.5898 17.6335C59.3864 17.7619 59.2278 17.9314 59.1139 18.1421C59.0025 18.3504 58.9456 18.5793 58.9432 18.8287V19.6025C58.9432 19.927 59.0025 20.2055 59.1212 20.438C59.2399 20.6681 59.4058 20.8448 59.6189 20.9684C59.832 21.0894 60.0815 21.15 60.3672 21.15C60.5585 21.15 60.7317 21.1234 60.8867 21.0701C61.0417 21.0144 61.1761 20.9332 61.2899 20.8267C61.4038 20.7201 61.4897 20.5881 61.5478 20.4307L62.7757 20.5688C62.6982 20.8933 62.5505 21.1766 62.3325 21.4188C62.117 21.6586 61.8409 21.845 61.5043 21.9782C61.1676 22.109 60.7826 22.1744 60.3491 22.1744ZM65.8922 22.0654V14.6257H68.6821C69.2536 14.6257 69.7332 14.7322 70.1206 14.9454C70.5105 15.1585 70.8048 15.4515 71.0034 15.8245C71.2044 16.195 71.3049 16.6164 71.3049 17.0886C71.3049 17.5657 71.2044 17.9896 71.0034 18.3601C70.8024 18.7306 70.5057 19.0224 70.1134 19.2356C69.721 19.4463 69.2379 19.5516 68.6639 19.5516H66.8149V18.4436H68.4823C68.8165 18.4436 69.0902 18.3855 69.3033 18.2693C69.5164 18.153 69.6738 17.9932 69.7755 17.7898C69.8797 17.5863 69.9317 17.3526 69.9317 17.0886C69.9317 16.8247 69.8797 16.5922 69.7755 16.3912C69.6738 16.1902 69.5152 16.034 69.2997 15.9226C69.0865 15.8087 68.8117 15.7518 68.475 15.7518H67.2399V22.0654H65.8922ZM73.4094 14.6257V22.0654H72.0944V14.6257H73.4094ZM76.0443 22.178C75.6907 22.178 75.3722 22.1151 75.0889 21.9891C74.808 21.8608 74.5852 21.6719 74.4205 21.4224C74.2582 21.173 74.1771 20.8654 74.1771 20.4997C74.1771 20.1849 74.2352 19.9246 74.3515 19.7187C74.4677 19.5129 74.6263 19.3482 74.8273 19.2247C75.0283 19.1012 75.2548 19.0079 75.5067 18.9449C75.7609 18.8796 76.0237 18.8323 76.2949 18.8033C76.6219 18.7694 76.8871 18.7391 77.0905 18.7125C77.2939 18.6834 77.4417 18.6398 77.5337 18.5817C77.6281 18.5211 77.6754 18.4279 77.6754 18.302V18.2802C77.6754 18.0065 77.5942 17.7946 77.432 17.6444C77.2697 17.4943 77.036 17.4192 76.7309 17.4192C76.4088 17.4192 76.1533 17.4895 75.9644 17.6299C75.7779 17.7704 75.652 17.9363 75.5866 18.1276L74.3587 17.9532C74.4556 17.6142 74.6154 17.3308 74.8382 17.1032C75.061 16.8731 75.3335 16.7012 75.6556 16.5873C75.9777 16.4711 76.3337 16.413 76.7236 16.413C76.9924 16.413 77.26 16.4444 77.5264 16.5074C77.7928 16.5704 78.0362 16.6745 78.2566 16.8198C78.477 16.9627 78.6538 17.1577 78.787 17.4047C78.9226 17.6517 78.9904 17.9605 78.9904 18.331V22.0654H77.7262V21.2989H77.6826C77.6027 21.4539 77.4901 21.5992 77.3448 21.7349C77.2019 21.8681 77.0215 21.9758 76.8035 22.0582C76.588 22.1381 76.3349 22.178 76.0443 22.178ZM76.3858 21.2117C76.6497 21.2117 76.8786 21.1597 77.0723 21.0555C77.2661 20.949 77.415 20.8085 77.5192 20.6342C77.6257 20.4598 77.679 20.2697 77.679 20.0638V19.4063C77.6378 19.4402 77.5676 19.4717 77.4683 19.5008C77.3714 19.5298 77.2625 19.5552 77.1414 19.577C77.0203 19.5988 76.9004 19.6182 76.7817 19.6352C76.6631 19.6521 76.5601 19.6666 76.4729 19.6788C76.2768 19.7054 76.1012 19.749 75.9462 19.8095C75.7912 19.8701 75.6689 19.9548 75.5793 20.0638C75.4897 20.1704 75.4449 20.3084 75.4449 20.4779C75.4449 20.7201 75.5333 20.903 75.7101 21.0265C75.8869 21.15 76.1121 21.2117 76.3858 21.2117ZM80.6072 24.1579C80.428 24.1579 80.2621 24.1433 80.1095 24.1143C79.9594 24.0876 79.8395 24.0561 79.7499 24.0198L80.0551 22.9954C80.2464 23.0511 80.4171 23.0777 80.5673 23.0753C80.7174 23.0729 80.8494 23.0257 80.9632 22.9336C81.0795 22.844 81.1776 22.6939 81.2575 22.4832L81.3701 22.1817L79.3467 16.4856H80.7416L82.0276 20.6995H82.0857L83.3753 16.4856H84.7739L82.5398 22.7411C82.4357 23.0366 82.2976 23.2896 82.1257 23.5003C81.9537 23.7135 81.743 23.8757 81.4936 23.9871C81.2466 24.1009 80.9511 24.1579 80.6072 24.1579Z" fill="white"/>
</svg>
