<svg width="38" height="39" viewBox="0 0 38 39" fill="none" xmlns="http://www.w3.org/2000/svg">
<circle cx="19" cy="19.0964" r="18.5" stroke="#DADADA"/>
<path d="M20.0286 9.09644C21.1536 9.09944 21.7246 9.10544 22.2176 9.11944L22.4116 9.12644C22.6356 9.13444 22.8566 9.14444 23.1236 9.15644C24.1876 9.20644 24.9136 9.37444 25.5506 9.62144C26.2106 9.87544 26.7666 10.2194 27.3226 10.7744C27.8311 11.2743 28.2245 11.879 28.4756 12.5464C28.7226 13.1834 28.8906 13.9094 28.9406 14.9744C28.9526 15.2404 28.9626 15.4614 28.9706 15.6864L28.9766 15.8804C28.9916 16.3724 28.9976 16.9434 28.9996 18.0684L29.0006 18.8144V20.1244C29.003 20.8538 28.9954 21.5832 28.9776 22.3124L28.9716 22.5064C28.9636 22.7314 28.9536 22.9524 28.9416 23.2184C28.8916 24.2834 28.7216 25.0084 28.4756 25.6464C28.2253 26.3142 27.8317 26.9191 27.3226 27.4184C26.8225 27.9268 26.2179 28.3202 25.5506 28.5714C24.9136 28.8184 24.1876 28.9864 23.1236 29.0364C22.8863 29.0476 22.649 29.0576 22.4116 29.0664L22.2176 29.0724C21.7246 29.0864 21.1536 29.0934 20.0286 29.0954L19.2826 29.0964H17.9736C17.2438 29.099 16.5141 29.0913 15.7846 29.0734L15.5906 29.0674C15.3532 29.0584 15.1158 29.0481 14.8786 29.0364C13.8146 28.9864 13.0886 28.8184 12.4506 28.5714C11.7832 28.3208 11.1788 27.9273 10.6796 27.4184C10.1706 26.9187 9.7768 26.314 9.52558 25.6464C9.27858 25.0094 9.11058 24.2834 9.06058 23.2184C9.04944 22.9812 9.03944 22.7438 9.03058 22.5064L9.02558 22.3124C9.00715 21.5833 8.99881 20.8538 9.00058 20.1244V18.0684C8.99779 17.339 9.00512 16.6096 9.02258 15.8804L9.02958 15.6864C9.03758 15.4614 9.04758 15.2404 9.05958 14.9744C9.10958 13.9094 9.27758 13.1844 9.52458 12.5464C9.77569 11.8783 10.1703 11.2735 10.6806 10.7744C11.1797 10.2659 11.7837 9.87242 12.4506 9.62144C13.0886 9.37444 13.8136 9.20644 14.8786 9.15644C15.1446 9.14444 15.3666 9.13444 15.5906 9.12644L15.7846 9.12044C16.5138 9.10267 17.2432 9.095 17.9726 9.09744L20.0286 9.09644ZM19.0006 14.0964C17.6745 14.0964 16.4027 14.6232 15.465 15.5609C14.5274 16.4986 14.0006 17.7704 14.0006 19.0964C14.0006 20.4225 14.5274 21.6943 15.465 22.632C16.4027 23.5697 17.6745 24.0964 19.0006 24.0964C20.3267 24.0964 21.5984 23.5697 22.5361 22.632C23.4738 21.6943 24.0006 20.4225 24.0006 19.0964C24.0006 17.7704 23.4738 16.4986 22.5361 15.5609C21.5984 14.6232 20.3267 14.0964 19.0006 14.0964ZM19.0006 16.0964C19.3945 16.0964 19.7847 16.1739 20.1487 16.3246C20.5127 16.4753 20.8434 16.6962 21.122 16.9748C21.4007 17.2533 21.6217 17.584 21.7725 17.9479C21.9233 18.3119 22.001 18.702 22.0011 19.0959C22.0011 19.4899 21.9236 19.88 21.7729 20.244C21.6222 20.608 21.4013 20.9388 21.1228 21.2174C20.8442 21.496 20.5135 21.7171 20.1496 21.8679C19.7856 22.0187 19.3955 22.0964 19.0016 22.0964C18.2059 22.0964 17.4429 21.7804 16.8803 21.2178C16.3176 20.6551 16.0016 19.8921 16.0016 19.0964C16.0016 18.3008 16.3176 17.5377 16.8803 16.9751C17.4429 16.4125 18.2059 16.0964 19.0016 16.0964M24.2516 12.5964C23.9201 12.5964 23.6021 12.7281 23.3677 12.9626C23.1333 13.197 23.0016 13.5149 23.0016 13.8464C23.0016 14.178 23.1333 14.4959 23.3677 14.7303C23.6021 14.9647 23.9201 15.0964 24.2516 15.0964C24.5831 15.0964 24.901 14.9647 25.1355 14.7303C25.3699 14.4959 25.5016 14.178 25.5016 13.8464C25.5016 13.5149 25.3699 13.197 25.1355 12.9626C24.901 12.7281 24.5831 12.5964 24.2516 12.5964Z" fill="black"/>
</svg>
