<svg width="17" height="16" viewBox="0 0 17 16" fill="none" xmlns="http://www.w3.org/2000/svg">
<path d="M11.04 13.4534C10.8667 13.4534 10.6867 13.4467 10.4934 13.4267C10.1467 13.4 9.75338 13.3334 9.34671 13.2334L8.22671 12.9667C5.15338 12.24 4.14671 10.6134 4.86671 7.5467L5.52005 4.75336C5.66671 4.12003 5.84005 3.6067 6.05338 3.18003C7.20005 0.813364 9.39338 1.0267 10.9534 1.39336L12.0667 1.65336C13.6267 2.02003 14.6134 2.60003 15.1667 3.4867C15.7134 4.37336 15.8 5.51336 15.4334 7.07336L14.78 9.86003C14.2067 12.3 13.0134 13.4534 11.04 13.4534ZM9.24671 2.1667C8.13338 2.1667 7.42671 2.6267 6.95338 3.61336C6.78005 3.97336 6.62671 4.42003 6.49338 4.98003L5.84005 7.77336C5.24671 10.2934 5.93338 11.3934 8.45338 11.9934L9.57338 12.26C9.93338 12.3467 10.2734 12.4 10.58 12.4267C12.3867 12.6067 13.2934 11.8134 13.8 9.63336L14.4534 6.8467C14.7534 5.56003 14.7134 4.66003 14.3134 4.01336C13.9134 3.3667 13.1267 2.9267 11.8334 2.6267L10.72 2.3667C10.1667 2.23336 9.67338 2.1667 9.24671 2.1667Z" fill="#FE6316"/>
<path d="M6.05402 14.8333C4.34069 14.8333 3.24735 13.8066 2.54735 11.64L1.69402 9.00664C0.747352 6.07331 1.59402 4.41997 4.51402 3.47331L5.56735 3.13331C5.91402 3.02664 6.17402 2.95331 6.40735 2.91331C6.59402 2.87331 6.78735 2.94664 6.90069 3.09997C7.01402 3.25331 7.03402 3.45331 6.95402 3.62664C6.78069 3.97997 6.62735 4.42664 6.50069 4.98664L5.84735 7.77997C5.25402 10.3 5.94069 11.4 8.46069 12L9.58069 12.2666C9.94069 12.3533 10.2807 12.4066 10.5874 12.4333C10.8007 12.4533 10.974 12.6 11.034 12.8066C11.0874 13.0133 11.0074 13.2266 10.834 13.3466C10.394 13.6466 9.84069 13.9 9.14069 14.1266L8.08735 14.4733C7.32069 14.7133 6.65402 14.8333 6.05402 14.8333ZM5.68735 4.14664L4.82735 4.42664C2.44735 5.19331 1.88069 6.31331 2.64735 8.69997L3.50069 11.3333C4.27402 13.7133 5.39402 14.2866 7.77402 13.52L8.82735 13.1733C8.86735 13.16 8.90069 13.1466 8.94069 13.1333L8.23402 12.9666C5.16069 12.24 4.15402 10.6133 4.87402 7.54664L5.52735 4.75331C5.57402 4.53997 5.62735 4.33331 5.68735 4.14664Z" fill="#FE6316"/>
</svg>
