<svg width="53" height="9" viewBox="0 0 53 9" fill="none" xmlns="http://www.w3.org/2000/svg">
<path d="M4.64652 1.31483L5.30205 2.62588C5.39038 2.8072 5.62749 2.97922 5.8274 3.01641L7.01293 3.21167C7.77073 3.3372 7.9474 3.8858 7.40345 4.43439L6.47828 5.35957C6.32486 5.51299 6.23652 5.81518 6.28766 6.03369L6.55266 7.17737C6.76187 8.0793 6.27836 8.43264 5.48336 7.95843L4.37222 7.29825C4.17231 7.17737 3.83758 7.17737 3.63766 7.29825L2.52652 7.95843C1.73152 8.42799 1.24801 8.0793 1.45722 7.17737L1.72222 6.03369C1.76407 5.81053 1.67573 5.50834 1.52231 5.35492L0.597136 4.42974C0.053189 3.8858 0.229856 3.3372 0.987663 3.20702L2.17319 3.01176C2.3731 2.97922 2.61021 2.80255 2.69854 2.62123L3.35407 1.31018C3.71205 0.603515 4.28854 0.603515 4.64652 1.31483Z" fill="#FDD835"/>
<path d="M15.8047 1.31483L16.4603 2.62588C16.5486 2.8072 16.7857 2.97922 16.9856 3.01641L18.1711 3.21167C18.9289 3.3372 19.1056 3.8858 18.5617 4.43439L17.6365 5.35957C17.4831 5.51299 17.3947 5.81518 17.4459 6.03369L17.7109 7.17737C17.9201 8.0793 17.4366 8.43264 16.6416 7.95843L15.5304 7.29825C15.3305 7.17737 14.9958 7.17737 14.7959 7.29825L13.6847 7.95843C12.8897 8.42799 12.4062 8.0793 12.6154 7.17737L12.8804 6.03369C12.9223 5.81053 12.8339 5.50834 12.6805 5.35492L11.7553 4.42974C11.2114 3.8858 11.3881 3.3372 12.1459 3.20702L13.3314 3.01176C13.5313 2.97922 13.7684 2.80255 13.8567 2.62123L14.5123 1.31018C14.8703 0.603515 15.4467 0.603515 15.8047 1.31483Z" fill="#FDD835"/>
<path d="M26.9629 1.31483L27.6185 2.62588C27.7068 2.8072 27.9439 2.97922 28.1438 3.01641L29.3293 3.21167C30.0871 3.3372 30.2638 3.8858 29.7199 4.43439L28.7947 5.35957C28.6413 5.51299 28.5529 5.81518 28.6041 6.03369L28.8691 7.17737C29.0783 8.0793 28.5948 8.43264 27.7998 7.95843L26.6886 7.29825C26.4887 7.17737 26.154 7.17737 25.9541 7.29825L24.8429 7.95843C24.0479 8.42799 23.5644 8.0793 23.7736 7.17737L24.0386 6.03369C24.0805 5.81053 23.9921 5.50834 23.8387 5.35492L22.9135 4.42974C22.3696 3.8858 22.5463 3.3372 23.3041 3.20702L24.4896 3.01176C24.6895 2.97922 24.9266 2.80255 25.0149 2.62123L25.6705 1.31018C26.0285 0.603515 26.6049 0.603515 26.9629 1.31483Z" fill="#FDD835"/>
<path d="M38.1211 1.31483L38.7767 2.62588C38.865 2.8072 39.1021 2.97922 39.302 3.01641L40.4875 3.21167C41.2453 3.3372 41.422 3.8858 40.8781 4.43439L39.9529 5.35957C39.7995 5.51299 39.7111 5.81518 39.7623 6.03369L40.0273 7.17737C40.2365 8.0793 39.753 8.43264 38.958 7.95843L37.8468 7.29825C37.6469 7.17737 37.3122 7.17737 37.1123 7.29825L36.0011 7.95843C35.2061 8.42799 34.7226 8.0793 34.9318 7.17737L35.1968 6.03369C35.2387 5.81053 35.1503 5.50834 34.9969 5.35492L34.0717 4.42974C33.5278 3.8858 33.7045 3.3372 34.4623 3.20702L35.6478 3.01176C35.8477 2.97922 36.0848 2.80255 36.1731 2.62123L36.8287 1.31018C37.1867 0.603515 37.7631 0.603515 38.1211 1.31483Z" fill="#FDD835"/>
<path d="M49.2774 1.31483L49.9329 2.62588C50.0212 2.8072 50.2583 2.97922 50.4583 3.01641L51.6438 3.21167C52.4016 3.3372 52.5783 3.8858 52.0343 4.43439L51.1091 5.35957C50.9557 5.51299 50.8674 5.81518 50.9185 6.03369L51.1835 7.17737C51.3927 8.0793 50.9092 8.43264 50.1142 7.95843L49.0031 7.29825C48.8032 7.17737 48.4684 7.17737 48.2685 7.29825L47.1574 7.95843C46.3624 8.42799 45.8789 8.0793 46.0881 7.17737L46.3531 6.03369C46.3949 5.81053 46.3066 5.50834 46.1532 5.35492L45.228 4.42974C44.684 3.8858 44.8607 3.3372 45.6185 3.20702L46.804 3.01176C47.004 2.97922 47.2411 2.80255 47.3294 2.62123L47.9849 1.31018C48.3429 0.603515 48.9194 0.603515 49.2774 1.31483Z" fill="#FDD835"/>
</svg>
