<svg width="363" height="213" viewBox="0 0 363 213" fill="none" xmlns="http://www.w3.org/2000/svg">
<rect x="0.5" y="0.5" width="362" height="212" rx="9.5" fill="#FCFCFC"/>
<rect x="0.5" y="0.5" width="362" height="212" rx="9.5" stroke="#E6E6E6"/>
<rect x="42.25" y="76.25" width="61.5" height="61.5" rx="11.5595" fill="#FE7D3C"/>
<rect x="42.25" y="76.25" width="61.5" height="61.5" rx="11.5595" stroke="#141414" stroke-width="0.5"/>
<path d="M73.9998 109.75H72.9998C72.5898 109.75 72.2498 109.41 72.2498 109C72.2498 108.59 72.5898 108.25 72.9998 108.25H73.9998C74.6898 108.25 75.2498 107.69 75.2498 107V97.75H66.9998C65.8198 97.75 64.7398 98.39 64.1598 99.42C63.9598 99.78 63.4998 99.91 63.1398 99.71C62.7798 99.51 62.6498 99.05 62.8498 98.69C63.6898 97.19 65.2798 96.25 66.9998 96.25H75.9998C76.4098 96.25 76.7498 96.59 76.7498 97V107C76.7498 108.52 75.5198 109.75 73.9998 109.75Z" fill="#F3E5E7"/>
<path d="M80.002 115.75H79.002C78.592 115.75 78.252 115.41 78.252 115C78.252 114.31 77.692 113.75 77.002 113.75C76.312 113.75 75.752 114.31 75.752 115C75.752 115.41 75.412 115.75 75.002 115.75H71.002C70.592 115.75 70.252 115.41 70.252 115C70.252 114.31 69.692 113.75 69.002 113.75C68.312 113.75 67.752 114.31 67.752 115C67.752 115.41 67.412 115.75 67.002 115.75H66.002C63.932 115.75 62.252 114.07 62.252 112C62.252 111.59 62.592 111.25 63.002 111.25C63.412 111.25 63.752 111.59 63.752 112C63.752 113.24 64.762 114.25 66.002 114.25H66.3519C66.6819 113.1 67.742 112.25 69.002 112.25C70.262 112.25 71.322 113.1 71.652 114.25H74.3619C74.6919 113.1 75.752 112.25 77.012 112.25C78.272 112.25 79.3319 113.1 79.6619 114.25H80.002C81.242 114.25 82.252 113.24 82.252 112V109.75H80.002C79.042 109.75 78.252 108.96 78.252 108V105C78.252 104.04 79.032 103.25 80.002 103.25L78.9319 101.38C78.7119 100.99 78.292 100.75 77.842 100.75H76.752V107C76.752 108.52 75.522 109.75 74.002 109.75H73.002C72.592 109.75 72.252 109.41 72.252 109C72.252 108.59 72.592 108.25 73.002 108.25H74.002C74.692 108.25 75.252 107.69 75.252 107V100C75.252 99.59 75.592 99.25 76.002 99.25H77.842C78.832 99.25 79.7419 99.78 80.2319 100.64L81.942 103.63C82.072 103.86 82.072 104.15 81.942 104.38C81.812 104.61 81.5619 104.75 81.2919 104.75H80.002C79.862 104.75 79.752 104.86 79.752 105V108C79.752 108.14 79.862 108.25 80.002 108.25H83.002C83.412 108.25 83.752 108.59 83.752 109V112C83.752 114.07 82.072 115.75 80.002 115.75Z" fill="#F3E5E7"/>
<path d="M69 117.75C67.48 117.75 66.25 116.52 66.25 115C66.25 113.48 67.48 112.25 69 112.25C70.52 112.25 71.75 113.48 71.75 115C71.75 116.52 70.52 117.75 69 117.75ZM69 113.75C68.31 113.75 67.75 114.31 67.75 115C67.75 115.69 68.31 116.25 69 116.25C69.69 116.25 70.25 115.69 70.25 115C70.25 114.31 69.69 113.75 69 113.75Z" fill="#F3E5E7"/>
<path d="M77.002 117.75C75.482 117.75 74.252 116.52 74.252 115C74.252 113.48 75.482 112.25 77.002 112.25C78.522 112.25 79.752 113.48 79.752 115C79.752 116.52 78.522 117.75 77.002 117.75ZM77.002 113.75C76.312 113.75 75.752 114.31 75.752 115C75.752 115.69 76.312 116.25 77.002 116.25C77.692 116.25 78.252 115.69 78.252 115C78.252 114.31 77.692 113.75 77.002 113.75Z" fill="#F3E5E7"/>
<path d="M83 109.75H80C79.04 109.75 78.25 108.96 78.25 108V105C78.25 104.04 79.04 103.25 80 103.25H81.29C81.56 103.25 81.81 103.39 81.94 103.63L83.65 106.63C83.71 106.74 83.75 106.87 83.75 107V109C83.75 109.41 83.41 109.75 83 109.75ZM80 104.75C79.86 104.75 79.75 104.86 79.75 105V108C79.75 108.14 79.86 108.25 80 108.25H82.25V107.2L80.85 104.75H80Z" fill="#F3E5E7"/>
<path d="M69.002 103.75H63.002C62.592 103.75 62.252 103.41 62.252 103C62.252 102.59 62.592 102.25 63.002 102.25H69.002C69.412 102.25 69.752 102.59 69.752 103C69.752 103.41 69.412 103.75 69.002 103.75Z" fill="#F3E5E7"/>
<path d="M67.002 106.75H63.002C62.592 106.75 62.252 106.41 62.252 106C62.252 105.59 62.592 105.25 63.002 105.25H67.002C67.412 105.25 67.752 105.59 67.752 106C67.752 106.41 67.412 106.75 67.002 106.75Z" fill="#F3E5E7"/>
<path d="M65.002 109.75H63.002C62.592 109.75 62.252 109.41 62.252 109C62.252 108.59 62.592 108.25 63.002 108.25H65.002C65.412 108.25 65.752 108.59 65.752 109C65.752 109.41 65.412 109.75 65.002 109.75Z" fill="#F3E5E7"/>
<rect x="151.25" y="76.25" width="61.5" height="61.5" rx="11.5595" fill="#FE7D3C"/>
<rect x="151.25" y="76.25" width="61.5" height="61.5" rx="11.5595" stroke="#141414" stroke-width="0.5"/>
<path d="M180 111.75C179.59 111.75 179.25 111.41 179.25 111C179.25 109.33 179.25 107.25 183 107.25H187C189.25 107.25 189.25 106.95 189.25 105V103C189.25 101.05 189.25 100.75 187 100.75H186C185.59 100.75 185.25 100.41 185.25 100C185.25 99.59 185.59 99.25 186 99.25H187C190.5 99.25 190.75 100.67 190.75 103V105C190.75 107.33 190.5 108.75 187 108.75H183C180.75 108.75 180.75 109.36 180.75 111C180.75 111.41 180.41 111.75 180 111.75Z" fill="#F3E5E7"/>
<path d="M182.001 103.75H178.001C177.681 103.75 177.391 103.54 177.291 103.24C176.601 101.15 176.601 98.85 177.291 96.77C177.391 96.46 177.681 96.25 178.001 96.25H182.001C182.321 96.25 182.611 96.46 182.711 96.76C183.411 98.85 183.411 101.15 182.711 103.23C182.611 103.54 182.331 103.75 182.001 103.75ZM178.561 102.25H181.451C181.841 100.78 181.841 99.22 181.451 97.75H178.561C178.171 99.22 178.171 100.78 178.561 102.25Z" fill="#F3E5E7"/>
<path d="M178 103.75H177C174.58 103.75 173.25 102.42 173.25 100C173.25 97.58 174.58 96.25 177 96.25H178C178.26 96.25 178.5 96.38 178.64 96.61C178.78 96.83 178.79 97.11 178.67 97.34C177.77 99.13 177.77 100.88 178.67 102.67C178.79 102.9 178.77 103.18 178.64 103.4C178.5 103.62 178.26 103.75 178 103.75ZM176.88 97.75C175.39 97.79 174.75 98.46 174.75 100C174.75 101.53 175.39 102.21 176.87 102.25C176.37 100.75 176.37 99.25 176.88 97.75Z" fill="#F3E5E7"/>
<path d="M182.999 103.75H181.999C181.739 103.75 181.499 103.62 181.359 103.39C181.219 103.17 181.209 102.89 181.329 102.66C182.219 100.87 182.219 99.12 181.329 97.33C181.209 97.1 181.229 96.82 181.359 96.6C181.499 96.38 181.739 96.25 181.999 96.25H182.999C185.419 96.25 186.749 97.58 186.749 100C186.749 102.42 185.419 103.75 182.999 103.75ZM183.119 97.75C183.619 99.25 183.619 100.75 183.119 102.25C184.609 102.21 185.239 101.54 185.239 100C185.249 98.46 184.609 97.79 183.119 97.75Z" fill="#F3E5E7"/>
<path d="M180.5 117.75H179.5C178.47 117.75 177.25 117.36 177.25 115.5V112.5C177.25 110.64 178.47 110.25 179.5 110.25H180.5C181.53 110.25 182.75 110.64 182.75 112.5V115.5C182.75 117.36 181.53 117.75 180.5 117.75ZM179.5 111.75C178.75 111.75 178.75 111.97 178.75 112.5V115.5C178.75 116.03 178.75 116.25 179.5 116.25H180.5C181.25 116.25 181.25 116.03 181.25 115.5V112.5C181.25 111.97 181.25 111.75 180.5 111.75H179.5Z" fill="#F3E5E7"/>
<rect x="260.25" y="76.25" width="61.5" height="61.5" rx="11.5595" fill="#FEE7DB" fill-opacity="0.5"/>
<rect x="260.25" y="76.25" width="61.5" height="61.5" rx="11.5595" stroke="#B9C0C7" stroke-width="0.5"/>
<path d="M291 117.75C285.07 117.75 280.25 112.93 280.25 107C280.25 101.07 285.07 96.25 291 96.25C296.93 96.25 301.75 101.07 301.75 107C301.75 112.93 296.93 117.75 291 117.75ZM291 97.75C285.9 97.75 281.75 101.9 281.75 107C281.75 112.1 285.9 116.25 291 116.25C296.1 116.25 300.25 112.1 300.25 107C300.25 101.9 296.1 97.75 291 97.75Z" fill="#292D32"/>
<path d="M289.579 110.58C289.379 110.58 289.189 110.5 289.049 110.36L286.219 107.53C285.929 107.24 285.929 106.76 286.219 106.47C286.509 106.18 286.989 106.18 287.279 106.47L289.579 108.77L294.719 103.63C295.009 103.34 295.489 103.34 295.779 103.63C296.069 103.92 296.069 104.4 295.779 104.69L290.109 110.36C289.969 110.5 289.779 110.58 289.579 110.58Z" fill="#292D32"/>
<path d="M107 107C122.621 107 131.379 107 147 107" stroke="#FE6316" stroke-dasharray="2 2"/>
<line x1="216" y1="106.5" x2="256" y2="106.5" stroke="#656D78" stroke-dasharray="2 2"/>
</svg>
