<svg width="17" height="17" viewBox="0 0 17 17" fill="none" xmlns="http://www.w3.org/2000/svg">
<path d="M7.6937 10.6133C7.56036 10.6133 7.4337 10.56 7.34036 10.4667L5.72703 8.85332C5.5337 8.65999 5.5337 8.33999 5.72703 8.14666C5.92036 7.95332 6.24036 7.95332 6.4337 8.14666L7.6937 9.40666L10.5604 6.53999C10.7537 6.34666 11.0737 6.34666 11.267 6.53999C11.4604 6.73332 11.4604 7.05332 11.267 7.24666L8.04703 10.4667C7.9537 10.56 7.82703 10.6133 7.6937 10.6133Z" fill="#FE6316"/>
<path d="M8.49927 15.6667C8.07927 15.6667 7.65927 15.5267 7.3326 15.2467L6.27927 14.34C6.1726 14.2467 5.90594 14.1533 5.76594 14.1533H4.61927C3.6326 14.1533 2.8326 13.3533 2.8326 12.3667V11.2267C2.8326 11.0867 2.73927 10.8267 2.64594 10.72L1.74594 9.66001C1.19927 9.01334 1.19927 7.99334 1.74594 7.34668L2.64594 6.28668C2.73927 6.18001 2.8326 5.92001 2.8326 5.78001V4.63334C2.8326 3.64668 3.6326 2.84668 4.61927 2.84668H5.7726C5.9126 2.84668 6.17927 2.74668 6.28594 2.66001L7.33927 1.75334C7.9926 1.19334 9.0126 1.19334 9.66594 1.75334L10.7193 2.66001C10.8259 2.75334 11.0926 2.84668 11.2326 2.84668H12.3659C13.3526 2.84668 14.1526 3.64668 14.1526 4.63334V5.76668C14.1526 5.90668 14.2526 6.17334 14.3459 6.28001L15.2526 7.33334C15.8126 7.98668 15.8126 9.00668 15.2526 9.66001L14.3459 10.7133C14.2526 10.82 14.1526 11.0867 14.1526 11.2267V12.36C14.1526 13.3467 13.3526 14.1467 12.3659 14.1467H11.2326C11.0926 14.1467 10.8259 14.2467 10.7193 14.3333L9.66594 15.24C9.33927 15.5267 8.91927 15.6667 8.49927 15.6667ZM4.61927 3.84668C4.18594 3.84668 3.8326 4.20001 3.8326 4.63334V5.77334C3.8326 6.15334 3.6526 6.64001 3.40594 6.92668L2.50594 7.98668C2.2726 8.26001 2.2726 8.73334 2.50594 9.00668L3.40594 10.0667C3.6526 10.36 3.8326 10.84 3.8326 11.22V12.36C3.8326 12.7933 4.18594 13.1467 4.61927 13.1467H5.7726C6.15927 13.1467 6.64594 13.3267 6.93927 13.58L7.9926 14.4867C8.26594 14.72 8.74594 14.72 9.01927 14.4867L10.0726 13.58C10.3659 13.3333 10.8526 13.1467 11.2393 13.1467H12.3726C12.8059 13.1467 13.1593 12.7933 13.1593 12.36V11.2267C13.1593 10.84 13.3393 10.3533 13.5926 10.06L14.4993 9.00668C14.7326 8.73334 14.7326 8.25334 14.4993 7.98001L13.5926 6.92668C13.3393 6.63334 13.1593 6.14668 13.1593 5.76001V4.63334C13.1593 4.20001 12.8059 3.84668 12.3726 3.84668H11.2393C10.8526 3.84668 10.3659 3.66668 10.0726 3.41334L9.01927 2.50668C8.74594 2.27334 8.26594 2.27334 7.9926 2.50668L6.93927 3.42001C6.64594 3.66668 6.1526 3.84668 5.7726 3.84668H4.61927Z" fill="#FE6316"/>
</svg>
